<svg width="564" height="95" viewBox="0 0 564 95" fill="none" xmlns="http://www.w3.org/2000/svg">
<path d="M50 0L34.5918 31.1878L0 36.1656L25 60.4454L19.0816 94.6809L50 78.5282L80.9184 94.6809L75 60.4454L100 36.1656L65.5102 31.1878L50 0Z" fill="#EAECFB"/>
<mask id="mask0_722_1635" style="mask-type:alpha" maskUnits="userSpaceOnUse" x="0" y="0" width="40" height="95">
<path fill-rule="evenodd" clip-rule="evenodd" d="M0 0H40V94.6809H0V0Z" fill="#D9D9D9"/>
</mask>
<g mask="url(#mask0_722_1635)">
<path d="M50 0L34.5918 31.1878L0 36.1656L25 60.4454L19.0816 94.6809L50 78.5282L80.9184 94.6809L75 60.4454L100 36.1656L65.5102 31.1878L50 0Z" fill="#F4CC25"/>
</g>
<path d="M166 0L150.592 31.1878L116 36.1656L141 60.4454L135.082 94.6809L166 78.5282L196.918 94.6809L191 60.4454L216 36.1656L181.51 31.1878L166 0Z" fill="#EAECFB"/>
<path d="M282 0L266.592 31.1878L232 36.1656L257 60.4454L251.082 94.6809L282 78.5282L312.918 94.6809L307 60.4454L332 36.1656L297.51 31.1878L282 0Z" fill="#EAECFB"/>
<path d="M398 0L382.592 31.1878L348 36.1656L373 60.4454L367.082 94.6809L398 78.5282L428.918 94.6809L423 60.4454L448 36.1656L413.51 31.1878L398 0Z" fill="#EAECFB"/>
<path d="M514 0L498.592 31.1878L464 36.1656L489 60.4454L483.082 94.6809L514 78.5282L544.918 94.6809L539 60.4454L564 36.1656L529.51 31.1878L514 0Z" fill="#EAECFB"/>
</svg>
