<svg xmlns="http://www.w3.org/2000/svg" width="135.253" height="23.173" viewBox="0 0 135.253 23.173">
  <g id="Group_204" data-name="Group 204" transform="translate(-680 -632.827)">
    <path id="Path_1254" data-name="Path 1254" d="M7.988-14l3.15-6.381a1.1,1.1,0,0,1,1.977,0L16.265-14l7.044,1.03a1.1,1.1,0,0,1,.61,1.88l-5.1,4.964,1.2,7.013a1.1,1.1,0,0,1-1.6,1.162l-6.3-3.313-6.3,3.313A1.1,1.1,0,0,1,4.228.882l1.2-7.013-5.1-4.964a1.1,1.1,0,0,1,.61-1.88Z" transform="translate(791 653.827)" fill="#b6afbe"/>
    <path id="Path_1255" data-name="Path 1255" d="M7.988-14l3.15-6.381a1.1,1.1,0,0,1,1.977,0L16.265-14l7.044,1.03a1.1,1.1,0,0,1,.61,1.88l-5.1,4.964,1.2,7.013a1.1,1.1,0,0,1-1.6,1.162l-6.3-3.313-6.3,3.313A1.1,1.1,0,0,1,4.228.882l1.2-7.013-5.1-4.964a1.1,1.1,0,0,1,.61-1.88Z" transform="translate(763.25 653.827)" fill="#b6afbe"/>
    <path id="Path_1256" data-name="Path 1256" d="M7.988-14l3.15-6.381a1.1,1.1,0,0,1,1.977,0L16.265-14l7.044,1.03a1.1,1.1,0,0,1,.61,1.88l-5.1,4.964,1.2,7.013a1.1,1.1,0,0,1-1.6,1.162l-6.3-3.313-6.3,3.313A1.1,1.1,0,0,1,4.228.882l1.2-7.013-5.1-4.964a1.1,1.1,0,0,1,.61-1.88Z" transform="translate(735.5 653.827)" fill="#b6afbe"/>
    <path id="Path_1257" data-name="Path 1257" d="M7.988-14l3.15-6.381a1.1,1.1,0,0,1,1.977,0L16.265-14l7.044,1.03a1.1,1.1,0,0,1,.61,1.88l-5.1,4.964,1.2,7.013a1.1,1.1,0,0,1-1.6,1.162l-6.3-3.313-6.3,3.313A1.1,1.1,0,0,1,4.228.882l1.2-7.013-5.1-4.964a1.1,1.1,0,0,1,.61-1.88Z" transform="translate(707.75 653.827)" fill="#b6afbe"/>
    <path id="Path_1258" data-name="Path 1258" d="M7.988-14l3.15-6.381a1.1,1.1,0,0,1,1.977,0L16.265-14l7.044,1.03a1.1,1.1,0,0,1,.61,1.88l-5.1,4.964,1.2,7.013a1.1,1.1,0,0,1-1.6,1.162l-6.3-3.313-6.3,3.313A1.1,1.1,0,0,1,4.228.882l1.2-7.013-5.1-4.964a1.1,1.1,0,0,1,.61-1.88Z" transform="translate(680 653.827)" fill="#fdd030"/>
  </g>
</svg>
