<svg width="565" height="95" viewBox="0 0 565 95" fill="none" xmlns="http://www.w3.org/2000/svg">
<path d="M167 0L151.592 31.1878L117 36.1656L142 60.4454L136.082 94.6809L167 78.5282L197.918 94.6809L192 60.4454L217 36.1656L182.51 31.1878L167 0Z" fill="#EAECFB"/>
<mask id="mask0_722_1406" style="mask-type:alpha" maskUnits="userSpaceOnUse" x="117" y="0" width="10" height="95">
<path fill-rule="evenodd" clip-rule="evenodd" d="M117 0H127V94.6809H117V0Z" fill="#D9D9D9"/>
</mask>
<g mask="url(#mask0_722_1406)">
<path d="M167 0L151.592 31.1878L117 36.1656L142 60.4454L136.082 94.6809L167 78.5282L197.918 94.6809L192 60.4454L217 36.1656L182.51 31.1878L167 0Z" fill="#F4CC25"/>
</g>
<path d="M283 0L267.592 31.1878L233 36.1656L258 60.4454L252.082 94.6809L283 78.5282L313.918 94.6809L308 60.4454L333 36.1656L298.51 31.1878L283 0Z" fill="#EAECFB"/>
<path d="M399 0L383.592 31.1878L349 36.1656L374 60.4454L368.082 94.6809L399 78.5282L429.918 94.6809L424 60.4454L449 36.1656L414.51 31.1878L399 0Z" fill="#EAECFB"/>
<path d="M515 0L499.592 31.1878L465 36.1656L490 60.4454L484.082 94.6809L515 78.5282L545.918 94.6809L540 60.4454L565 36.1656L530.51 31.1878L515 0Z" fill="#EAECFB"/>
<path d="M50 0L34.5918 31.1878L0 36.1656L25 60.4454L19.0816 94.6809L50 78.5282L80.9184 94.6809L75 60.4454L100 36.1656L65.5102 31.1878L50 0Z" fill="#F4CC25"/>
</svg>
