<svg width="362" height="125" viewBox="0 0 362 125" fill="none" xmlns="http://www.w3.org/2000/svg">
<g clip-path="url(#clip0_1124_546)">
<path d="M345.364 62.4129C345.364 62.4129 345.19 62.4627 345.115 62.4876C345.19 62.4876 345.289 62.5373 345.364 62.5871C355.47 65.9701 362 75.7711 362 86.4428V125H0V86.4428C0 75.7711 6.53035 65.9701 16.6363 62.5871C16.7107 62.5373 16.8101 62.5124 16.8846 62.4876C16.8101 62.4627 16.7107 62.4378 16.6363 62.4129C6.55518 59.0299 0 49.2537 0 38.5821V0H362V38.5821C362 49.2537 355.445 59.0299 345.364 62.4129Z" fill="#DF3019"/>
<path d="M54.683 93.607H47.8547C41.5229 93.607 36.3086 88.5075 36.3086 82.1642V42.9851C36.3086 36.6418 41.5229 31.4179 47.8547 31.4179H54.683C61.0147 31.4179 66.229 36.6418 66.229 42.9851V49.4527H55.0554V48.3333C56.5452 48.3333 57.2901 46.592 57.2901 43.7313V42.9851C57.2901 41.4925 56.1728 40.2488 54.683 40.2488H47.8547C46.3648 40.2488 45.1233 41.4925 45.1233 42.9851V82.1642C45.1233 83.5323 46.3648 84.7761 47.8547 84.7761H54.683C56.1728 84.7761 57.2901 83.5323 57.2901 82.1642V80.1741C57.2901 80.1741 56.5452 75.8209 55.0554 75.8209V74.7015H66.229V82.1642C66.229 88.5075 61.0147 93.607 54.683 93.607Z" fill="white"/>
<path d="M54.683 93.607H47.8547C41.5229 93.607 36.3086 88.5075 36.3086 82.1642V42.9851C36.3086 36.6418 41.5229 31.4179 47.8547 31.4179H54.683C61.0147 31.4179 66.229 36.6418 66.229 42.9851V49.4527H55.0554V48.3333C56.5452 48.3333 57.2901 46.592 57.2901 43.7313V42.9851C57.2901 41.4925 56.1728 40.2488 54.683 40.2488H47.8547C46.3648 40.2488 45.1233 41.4925 45.1233 42.9851V82.1642C45.1233 83.5323 46.3648 84.7761 47.8547 84.7761H54.683C56.1728 84.7761 57.2901 83.5323 57.2901 82.1642V80.1741C57.2901 80.1741 56.5452 75.8209 55.0554 75.8209V74.7015H66.229V82.1642C66.229 88.5075 61.0147 93.607 54.683 93.607Z" stroke="black"/>
<path d="M70.4502 93.5821V92.4876C71.94 92.4876 72.6849 86.5174 72.809 85.0249V40.0995C72.6849 38.4826 71.94 32.5124 70.4502 32.5124V31.393H83.9826V32.5124C82.3687 32.5124 81.6238 39.2289 81.6238 40.3483V59.3781H93.7906V40.0995C93.7906 38.4826 92.9215 32.5124 91.4317 32.5124V31.393H104.964V32.5124C103.599 32.5124 102.854 37.9851 102.605 39.8507V85.2488C102.854 87.1144 103.599 92.4627 104.964 92.4627V93.5821H91.4317V92.4627C93.0457 92.4627 93.7906 85.7463 93.7906 84.7512V68.3333H81.6238V85.2488C81.7479 87.1144 82.617 92.4627 83.9826 92.4627V93.5821H70.4502Z" fill="white"/>
<path d="M70.4502 93.5821V92.4876C71.94 92.4876 72.6849 86.5174 72.809 85.0249V40.0995C72.6849 38.4826 71.94 32.5124 70.4502 32.5124V31.393H83.9826V32.5124C82.3687 32.5124 81.6238 39.2289 81.6238 40.3483V59.3781H93.7906V40.0995C93.7906 38.4826 92.9215 32.5124 91.4317 32.5124V31.393H104.964V32.5124C103.599 32.5124 102.854 37.9851 102.605 39.8507V85.2488C102.854 87.1144 103.599 92.4627 104.964 92.4627V93.5821H91.4317V92.4627C93.0457 92.4627 93.7906 85.7463 93.7906 84.7512V68.3333H81.6238V85.2488C81.7479 87.1144 82.617 92.4627 83.9826 92.4627V93.5821H70.4502Z" stroke="black"/>
<path d="M111.296 93.5821V92.4876C112.786 92.4876 113.531 86.2687 113.531 84.9005V39.7264C113.406 37.8607 112.662 32.5124 111.296 32.5124V31.393H124.704V32.5124C123.214 32.5124 122.47 38.7313 122.47 40.0995V84.8756C122.47 86.2438 123.214 92.4627 124.704 92.4627V93.5821H111.296Z" fill="white"/>
<path d="M111.296 93.5821V92.4876C112.786 92.4876 113.531 86.2687 113.531 84.9005V39.7264C113.406 37.8607 112.662 32.5124 111.296 32.5124V31.393H124.704V32.5124C123.214 32.5124 122.47 38.7313 122.47 40.0995V84.8756C122.47 86.2438 123.214 92.4627 124.704 92.4627V93.5821H111.296Z" stroke="black"/>
<path d="M131.036 93.5821V92.4876C132.402 92.4876 133.271 86.8905 133.395 85.1493V39.602C133.147 37.7363 132.402 32.5124 131.036 32.5124V31.393H144.568V32.5124C142.954 32.5124 142.21 39.2289 142.21 40.2239V84.7512H149.907C151.024 84.7512 157.728 83.8806 157.728 82.3881H158.722L156.984 93.5821H131.036Z" fill="white"/>
<path d="M131.036 93.5821V92.4876C132.402 92.4876 133.271 86.8905 133.395 85.1493V39.602C133.147 37.7363 132.402 32.5124 131.036 32.5124V31.393H144.568V32.5124C142.954 32.5124 142.21 39.2289 142.21 40.2239V84.7512H149.907C151.024 84.7512 157.728 83.8806 157.728 82.3881H158.722L156.984 93.5821H131.036Z" stroke="black"/>
<path d="M162.074 93.5821V92.4876C163.439 92.4876 164.308 86.8905 164.308 85.1493V39.9751C164.308 38.2338 163.439 32.5124 162.074 32.5124V31.393H188.642L189.759 42.5871H188.642C188.642 41.0945 181.938 40.3483 180.945 40.3483H173.247V51.9154H176.972C178.089 51.9154 184.793 51.1692 184.793 49.5522H185.911V63.1095H184.793C184.793 61.6169 178.089 60.7463 176.972 60.7463H173.247V84.7512H180.945C181.938 84.7512 188.642 84.005 188.642 82.3881H189.759L188.642 93.5821H162.074Z" fill="white"/>
<path d="M162.074 93.5821V92.4876C163.439 92.4876 164.308 86.8905 164.308 85.1493V39.9751C164.308 38.2338 163.439 32.5124 162.074 32.5124V31.393H188.642L189.759 42.5871H188.642C188.642 41.0945 181.938 40.3483 180.945 40.3483H173.247V51.9154H176.972C178.089 51.9154 184.793 51.1692 184.793 49.5522H185.911V63.1095H184.793C184.793 61.6169 178.089 60.7463 176.972 60.7463H173.247V84.7512H180.945C181.938 84.7512 188.642 84.005 188.642 82.3881H189.759L188.642 93.5821H162.074Z" stroke="black"/>
<path d="M194.601 93.5821V92.4876C196.215 92.4876 196.96 85.7711 196.96 84.7761V40.3483C196.96 39.2289 196.215 32.5124 194.601 32.5124V31.393H212.727C217.073 32.0149 224.77 35.4975 224.77 45.3234V50.9204C224.77 55.0249 223.901 58.3831 222.287 60.995C224.77 63.1095 226.881 66.592 226.881 71.9403V77.7861C226.881 83.5075 225.391 87.7363 222.411 90.597C219.432 93.3333 217.321 93.5821 216.079 93.5821H194.601ZM205.775 57.9104H212.231C213.224 57.7861 215.955 57.1642 215.955 50.9453V45.3483C215.955 41.6169 213.472 40.6219 212.107 40.3731H205.775V57.9104ZM205.775 84.7761H214.962C216.576 84.6517 218.066 82.7861 218.066 77.8109V71.9652C218.066 67.9851 215.707 67.1144 214.962 66.8657H205.775V84.7761Z" fill="white"/>
<path d="M194.601 93.5821V92.4876C196.215 92.4876 196.96 85.7711 196.96 84.7761V40.3483C196.96 39.2289 196.215 32.5124 194.601 32.5124V31.393H212.727C217.073 32.0149 224.77 35.4975 224.77 45.3234V50.9204C224.77 55.0249 223.901 58.3831 222.287 60.995C224.77 63.1095 226.881 66.592 226.881 71.9403V77.7861C226.881 83.5075 225.391 87.7363 222.411 90.597C219.432 93.3333 217.321 93.5821 216.079 93.5821H194.601ZM205.775 57.9104H212.231C213.224 57.7861 215.955 57.1642 215.955 50.9453V45.3483C215.955 41.6169 213.472 40.6219 212.107 40.3731H205.775V57.9104ZM205.775 84.7761H214.962C216.576 84.6517 218.066 82.7861 218.066 77.8109V71.9652C218.066 67.9851 215.707 67.1144 214.962 66.8657H205.775V84.7761Z" stroke="black"/>
<path d="M232.219 93.5821V92.4876C233.585 92.4876 234.454 86.8905 234.454 85.1493V39.9751C234.454 38.2338 233.585 32.5124 232.219 32.5124V31.393H258.788L259.905 42.5871H258.788C258.788 41.0945 252.083 40.3483 251.09 40.3483H243.393V51.9154H247.117C248.235 51.9154 254.939 51.1692 254.939 49.5522H256.056V63.1095H254.939C254.939 61.6169 248.235 60.7463 247.117 60.7463H243.393V84.7512H251.09C252.083 84.7512 258.788 84.005 258.788 82.3881H259.905L258.788 93.5821H232.219Z" fill="white"/>
<path d="M232.219 93.5821V92.4876C233.585 92.4876 234.454 86.8905 234.454 85.1493V39.9751C234.454 38.2338 233.585 32.5124 232.219 32.5124V31.393H258.788L259.905 42.5871H258.788C258.788 41.0945 252.083 40.3483 251.09 40.3483H243.393V51.9154H247.117C248.235 51.9154 254.939 51.1692 254.939 49.5522H256.056V63.1095H254.939C254.939 61.6169 248.235 60.7463 247.117 60.7463H243.393V84.7512H251.09C252.083 84.7512 258.788 84.005 258.788 82.3881H259.905L258.788 93.5821H232.219Z" stroke="black"/>
<path d="M264.374 42.4627H263.257V40.0995L264.995 31.2686H292.929L294.667 40.0995V42.4627H293.55C293.55 40.9701 286.846 40.0995 285.852 40.0995H283.369V84.7512C283.369 86.2438 284.238 92.4627 285.728 92.4627V93.5821H272.196V92.4627C273.686 92.4627 274.431 86.7413 274.555 85V40.0995H272.072C271.078 40.0995 264.374 40.9701 264.374 42.4627Z" fill="white"/>
<path d="M264.374 42.4627H263.257V40.0995L264.995 31.2686H292.929L294.667 40.0995V42.4627H293.55C293.55 40.9701 286.846 40.0995 285.852 40.0995H283.369V84.7512C283.369 86.2438 284.238 92.4627 285.728 92.4627V93.5821H272.196V92.4627C273.686 92.4627 274.431 86.7413 274.555 85V40.0995H272.072C271.078 40.0995 264.374 40.9701 264.374 42.4627Z" stroke="black"/>
<path d="M325.208 37.3632C326.698 39.602 327.691 42.3383 327.691 45.3234V52.5373H316.145V51.4179C317.635 51.4179 318.504 48.4328 318.628 45.199C318.504 42.0895 315.773 39.602 312.421 39.602C309.069 39.602 306.213 42.2139 306.213 45.3234V49.5522C306.213 51.0448 306.958 52.5373 308.324 53.5323L322.105 63.7313C325.953 66.7164 327.691 72.0647 327.691 75.9204V79.7761C327.691 82.6368 326.698 85.3731 325.208 87.7363C322.601 91.592 318.008 93.9552 313.29 93.9552C307.951 94.0796 303.854 92.5871 301.123 89.602C298.64 86.99 297.15 83.5075 297.15 79.7761V72.4378H308.572V73.5572C307.206 73.5572 306.213 76.5423 306.213 79.9005C306.337 82.8856 309.069 85.3731 312.421 85.3731C315.773 85.3731 318.628 82.8856 318.628 79.7761V75.9204C318.628 74.1791 317.635 71.8159 316.642 71.0696L302.861 60.7463C299.261 58.0099 297.15 53.9055 297.15 49.5522V45.3234C297.15 41.4677 298.64 37.9851 301.123 35.3731C303.854 32.3881 307.951 30.8955 313.29 31.0199C318.008 31.0199 322.601 33.3831 325.208 37.3632Z" fill="white"/>
<path d="M325.208 37.3632C326.698 39.602 327.691 42.3383 327.691 45.3234V52.5373H316.145V51.4179C317.635 51.4179 318.504 48.4328 318.628 45.199C318.504 42.0895 315.773 39.602 312.421 39.602C309.069 39.602 306.213 42.2139 306.213 45.3234V49.5522C306.213 51.0448 306.958 52.5373 308.324 53.5323L322.105 63.7313C325.953 66.7164 327.691 72.0647 327.691 75.9204V79.7761C327.691 82.6368 326.698 85.3731 325.208 87.7363C322.601 91.592 318.008 93.9552 313.29 93.9552C307.951 94.0796 303.854 92.5871 301.123 89.602C298.64 86.99 297.15 83.5075 297.15 79.7761V72.4378H308.572V73.5572C307.206 73.5572 306.213 76.5423 306.213 79.9005C306.337 82.8856 309.069 85.3731 312.421 85.3731C315.773 85.3731 318.628 82.8856 318.628 79.7761V75.9204C318.628 74.1791 317.635 71.8159 316.642 71.0696L302.861 60.7463C299.261 58.0099 297.15 53.9055 297.15 49.5522V45.3234C297.15 41.4677 298.64 37.9851 301.123 35.3731C303.854 32.3881 307.951 30.8955 313.29 31.0199C318.008 31.0199 322.601 33.3831 325.208 37.3632Z" stroke="black"/>
<path d="M61.5113 56.6915L63.5722 59.403L66.7505 60.5224L64.8137 63.3085L64.764 66.6915L61.5113 65.7214L58.2833 66.6915L58.2089 63.3085L56.2721 60.5224L59.4752 59.403L61.5113 56.6915Z" fill="white"/>
<path d="M61.5113 56.6915L63.5722 59.403L66.7505 60.5224L64.8137 63.3085L64.764 66.6915L61.5113 65.7214L58.2833 66.6915L58.2089 63.3085L56.2721 60.5224L59.4752 59.403L61.5113 56.6915Z" stroke="black"/>
</g>
<defs>
<clipPath id="clip0_1124_546">
<rect width="362" height="125" fill="white"/>
</clipPath>
</defs>
</svg>
