<svg width="2533" height="314" viewBox="0 0 2533 314" fill="none" xmlns="http://www.w3.org/2000/svg">
<path d="M696.505 85.4487L634.469 134.846L698.949 218.43H658.91L609.673 154.593L584.235 174.853V218.43H549.599V85.4487H584.203V135.522L647.075 85.4487H696.505Z" fill="white"/>
<path d="M902.296 152.017C902.296 194.018 868.463 220.549 821.864 220.549C775.264 220.549 741.432 194.05 741.432 152.017C741.432 109.984 775.232 83.4839 821.831 83.4839C868.431 83.4839 902.263 110.016 902.263 152.017H902.296ZM821.864 114.808C791.569 114.808 776.84 124.295 776.84 152.017C776.84 179.739 791.569 189.226 821.864 189.226C852.158 189.226 866.888 179.739 866.888 152.017C866.888 124.295 852.158 114.808 821.864 114.808Z" fill="white"/>
<path d="M1068.2 85.4487H1100.81V218.462H1069.71L1000.34 135.94V218.462H967.729V85.4487H998.795L1068.16 167.971V85.4487H1068.2Z" fill="white"/>
<path d="M1250.44 146.067H1327.24L1327.33 218.459H1292.73V208.715C1279.71 216.465 1264.04 220.549 1246.9 220.549C1200.3 220.549 1166.47 194.05 1166.47 152.049C1166.47 110.048 1200.3 83.4839 1246.9 83.4839C1297.84 83.4839 1320.93 108.344 1320.93 108.344L1296.4 128.669C1296.4 128.669 1282.21 114.808 1246.9 114.808C1216.61 114.808 1201.88 124.263 1201.88 151.985C1201.88 179.706 1216.61 189.161 1246.9 189.161C1263.85 189.161 1275.75 184.948 1283.08 176.33H1250.44V146.035V146.067Z" fill="white"/>
<path d="M1429.97 188.168H1515.32V218.462H1395.37V85.4487H1513.07V115.776H1429.97V135.522H1496.38V165.816H1429.97V188.168Z" fill="white"/>
<path d="M1709.39 181.928C1709.39 208.075 1691.83 218.462 1659.99 218.462H1581.71V85.4487H1648.76C1682.85 85.4487 1699.42 97.7981 1699.42 123.237C1699.42 134.139 1696.36 142.307 1690.09 148C1707.04 156.104 1709.42 168.293 1709.39 181.928ZM1666.87 125.134C1666.87 119.152 1664.91 115.743 1648.76 115.743H1616.32V136.004H1651.4C1665.33 136.004 1666.87 131.116 1666.87 125.134ZM1616.32 188.168H1659.99C1669.89 188.168 1673.75 184.148 1673.75 177.008C1673.75 169.869 1670.83 166.331 1651.37 166.331H1616.28V188.168H1616.32Z" fill="white"/>
<path d="M1930.14 152.017C1930.14 194.018 1896.31 220.549 1849.71 220.549C1803.11 220.549 1769.28 194.05 1769.28 152.017C1769.28 109.984 1803.11 83.4839 1849.71 83.4839C1896.31 83.4839 1930.14 110.016 1930.14 152.017ZM1849.71 114.808C1819.41 114.808 1804.68 124.295 1804.68 152.017C1804.68 179.739 1819.41 189.226 1849.71 189.226C1880 189.226 1894.73 179.739 1894.73 152.017C1894.73 124.295 1880 114.808 1849.71 114.808Z" fill="white"/>
<path d="M2096.02 85.4487H2128.63V218.462H2097.53L2028.16 135.94V218.462H1995.55V85.4487H2026.62L2095.98 167.971V85.4487H2096.02Z" fill="white"/>
<path d="M2300.98 148.032V85.4487H2335.59V148.032C2335.59 193.442 2309.76 220.553 2266.48 220.553C2223.19 220.553 2197.37 193.442 2197.37 148.032V85.4487H2231.97V148.032C2231.97 177.297 2241.97 189.229 2266.48 189.229C2290.98 189.229 2300.98 177.297 2300.98 148.032Z" fill="white"/>
<path d="M2532.38 176.683C2532.38 202.926 2507.04 220.549 2469.28 220.549C2431.53 220.549 2394.26 201.125 2394.26 201.125L2408.66 172.277C2408.66 172.277 2442.53 188.615 2466.94 188.615C2487.58 188.615 2499.48 186.01 2499.48 177.423C2499.48 170.895 2496.52 165.685 2461.02 165.685C2414.03 165.685 2404.19 149.669 2404.19 131.434C2404.13 101.397 2428.47 83.4839 2469.25 83.4839C2505.85 83.4839 2526.27 97.377 2526.27 97.377L2514.28 126.546C2514.28 126.546 2491.02 115.354 2467.07 115.354C2446.55 115.354 2437.32 121.015 2437.32 126.675C2437.32 131.917 2440.41 136.001 2474.95 136.001C2509.48 136.001 2532.35 149.347 2532.35 176.683H2532.38Z" fill="white"/>
<path d="M102.965 296.973C104.797 296.973 106.546 296.593 108.141 295.904C107.712 297.199 107.474 298.578 107.474 300.003C107.474 307.216 113.34 313.074 120.562 313.074C127.785 313.074 133.65 307.216 133.65 300.003C133.65 298.019 133.198 296.142 132.401 294.454C130.854 289.606 133.091 287.836 135.399 287.218H145.406V289.903C145.406 291.543 146.738 292.874 148.38 292.874C150.022 292.874 151.355 291.543 151.355 289.903V287.218H158.042V289.903C158.042 291.543 159.374 292.874 161.016 292.874C162.658 292.874 163.991 291.543 163.991 289.903V287.218H222.59V300.289C220.948 300.289 219.615 301.62 219.615 303.259C219.615 304.899 220.948 306.23 222.59 306.23H245.494C247.136 306.23 248.468 304.899 248.468 303.259C248.468 301.62 247.136 300.289 245.494 300.289V287.218H253.68C255.322 287.218 256.654 285.887 256.654 284.247C256.654 282.607 255.322 281.276 253.68 281.276H163.991V278.591C163.991 276.951 162.658 275.62 161.016 275.62C159.374 275.62 158.042 276.951 158.042 278.591V281.276H151.355V278.591C151.355 276.951 150.022 275.62 148.38 275.62C146.738 275.62 145.406 276.951 145.406 278.591V281.276H135.066C132.841 280.563 130.842 278.674 132.496 273.85C133.234 272.21 133.662 270.404 133.662 268.49C133.662 261.278 127.796 255.419 120.574 255.419C113.352 255.419 107.486 261.278 107.486 268.49C107.486 269.643 107.653 270.748 107.926 271.806C106.403 271.176 104.726 270.831 102.977 270.831C95.7545 270.831 89.8887 276.69 89.8887 283.902C89.8887 291.115 95.7545 296.973 102.977 296.973H102.965ZM237.308 294.264C237.308 296.07 235.844 297.532 234.036 297.532C232.227 297.532 230.764 296.07 230.764 294.264C230.764 292.458 232.227 290.996 234.036 290.996C235.844 290.996 237.308 292.458 237.308 294.264ZM120.562 307.133C116.624 307.133 113.423 303.937 113.423 300.003C113.423 296.07 116.624 292.874 120.562 292.874C124.501 292.874 127.701 296.07 127.701 300.003C127.701 303.937 124.501 307.133 120.562 307.133ZM120.562 261.361C124.501 261.361 127.701 264.557 127.701 268.49C127.701 272.424 124.501 275.62 120.562 275.62C116.624 275.62 113.423 272.424 113.423 268.49C113.423 264.557 116.624 261.361 120.562 261.361ZM102.965 276.773C106.903 276.773 110.104 279.969 110.104 283.902C110.104 287.836 106.903 291.032 102.965 291.032C99.0265 291.032 95.8259 287.836 95.8259 283.902C95.8259 279.969 99.0265 276.773 102.965 276.773Z" fill="white"/>
<path d="M172.968 172.455C100.525 172.455 44.1982 185.517 44.1982 201.634C44.1982 217.751 100.525 230.814 172.968 230.814C245.411 230.814 301.749 217.751 301.749 201.634C301.749 185.517 245.423 172.455 172.968 172.455Z" fill="white"/>
<path d="M318.477 32.0201C308.41 28.3593 300.173 39.3417 307.495 66.7976C314.816 94.2536 298.343 107.066 280.039 110.727C271.196 112.498 265.764 104.642 262.519 96.0483C264.956 91.3178 272.491 86.9082 272.717 82.0232C273.05 74.6659 267.226 76.8291 267.226 76.8291C267.559 69.4719 260.582 66.0488 260.582 66.0488C260.582 66.0488 252.821 65.9775 249.814 72.6929C249.814 72.6929 245.582 68.1526 242.575 74.868C240.614 79.2538 245.154 86.3852 245.368 91.6862C236.383 98.8533 222.869 104.083 205.611 94.6695C178 79.6104 217.817 53.0815 214.156 33.8623C210.496 14.6432 196.768 23.7952 196.768 23.7952C193.107 4.576 172.972 0 172.972 0C172.972 0 152.838 4.576 149.177 23.7952C149.177 23.7952 135.437 14.6432 131.789 33.8623C128.128 53.0815 167.945 79.6223 140.322 94.6695C123.064 104.083 109.55 98.8533 100.565 91.6862C100.779 86.3971 105.331 79.2538 103.358 74.868C100.351 68.1526 96.1196 72.6929 96.1196 72.6929C93.1125 65.9775 85.3512 66.0488 85.3512 66.0488C85.3512 66.0488 78.3743 69.4719 78.7071 76.8291C78.7071 76.8291 72.8949 74.6659 73.2159 82.0232C73.4417 86.9201 80.9772 91.3178 83.4138 96.0483C80.169 104.642 74.7372 112.498 65.8943 110.727C47.5903 107.066 31.1167 94.2536 38.4383 66.7976C45.7599 39.3417 37.5231 28.3593 27.4559 32.0201C27.4559 32.0201 19.2192 11.8857 0 16.4617L42.0991 195.615C43.9652 185.036 63.9926 178.273 80.9178 174.411C105.224 168.86 137.922 165.805 172.972 165.805C208.023 165.805 240.721 168.86 265.027 174.411C281.952 178.273 301.98 185.036 303.846 195.615L345.945 16.4617C326.726 11.8857 318.489 32.0201 318.489 32.0201H318.477ZM178.975 126.82L182.505 147.276C182.659 148.143 181.994 148.928 181.114 148.928H164.807C163.927 148.928 163.262 148.143 163.416 147.276L166.946 126.82C167.018 126.428 166.839 126.012 166.507 125.798C163.095 123.623 160.849 119.784 160.92 115.422C161.027 109.206 165.984 104 172.2 103.608C179.201 103.168 185.025 108.718 185.025 115.636C185.025 119.915 182.802 123.659 179.438 125.798C179.094 126.012 178.927 126.416 178.987 126.82H178.975Z" fill="white"/>
</svg>
